<svg xmlns="http://www.w3.org/2000/svg" xmlns:xlink="http://www.w3.org/1999/xlink" width="32" height="32" viewBox="0 0 32 32">
  <defs>
    <clipPath id="clip-Artboard_21">
      <rect width="32" height="32"/>
    </clipPath>
  </defs>
  <g id="Artboard_21" data-name="Artboard – 21" clip-path="url(#clip-Artboard_21)">
    <path id="Union_10" data-name="Union 10" d="M-762.03,240.26a6.478,6.478,0,0,1-2.066-1.392,6.5,6.5,0,0,1-1.393-2.066,6.467,6.467,0,0,1-.51-2.53,6.467,6.467,0,0,1,.51-2.53,6.475,6.475,0,0,1,1.393-2.066,6.5,6.5,0,0,1,2.066-1.393,6.467,6.467,0,0,1,2.53-.51,6.467,6.467,0,0,1,2.53.51,6.485,6.485,0,0,1,2.066,1.393,6.485,6.485,0,0,1,1.393,2.066,6.467,6.467,0,0,1,.51,2.53,6.467,6.467,0,0,1-.51,2.53,6.5,6.5,0,0,1-1.393,2.066,6.468,6.468,0,0,1-2.066,1.392,6.451,6.451,0,0,1-2.53.511A6.451,6.451,0,0,1-762.03,240.26Zm4.88-6.592a1.018,1.018,0,0,0-.3.725,1.015,1.015,0,0,0,.3.725,1.015,1.015,0,0,0,.724.3,1.018,1.018,0,0,0,.725-.3,1.027,1.027,0,0,0,0-1.449,1.021,1.021,0,0,0-.725-.3A1.018,1.018,0,0,0-757.15,233.668Zm-3.074,0a1.019,1.019,0,0,0-.3.725,1.016,1.016,0,0,0,.3.725,1.015,1.015,0,0,0,.724.3,1.015,1.015,0,0,0,.724-.3,1.015,1.015,0,0,0,.3-.725,1.018,1.018,0,0,0-.3-.725,1.018,1.018,0,0,0-.724-.3A1.018,1.018,0,0,0-760.225,233.668Zm-3.075,0a1.018,1.018,0,0,0-.3.725,1.015,1.015,0,0,0,.3.725,1.018,1.018,0,0,0,.725.3,1.015,1.015,0,0,0,.724-.3,1.015,1.015,0,0,0,.3-.725,1.018,1.018,0,0,0-.3-.725,1.018,1.018,0,0,0-.724-.3A1.021,1.021,0,0,0-763.3,233.668Zm-3.29,4.827a5.177,5.177,0,0,1-3.8-2.742,7.768,7.768,0,0,1-.625-1.5c0-.141-.04-.207-.129-.207a.621.621,0,0,0-.247.082,5.314,5.314,0,0,1-2.241.5,5.476,5.476,0,0,1-5.263-4.506,6.129,6.129,0,0,1,1.136-4.842,5.053,5.053,0,0,1,3.616-2.038,1.332,1.332,0,0,0,1.126-.875,7.757,7.757,0,0,1,5.629-5.128A9.654,9.654,0,0,1-765.3,217a7.854,7.854,0,0,1,6.294,3.243.646.646,0,0,0,.5.25,4.508,4.508,0,0,1,.977-.11,4.247,4.247,0,0,1,4.026,3.112c.089.267.181.422.388.422a.768.768,0,0,0,.238-.047,4.567,4.567,0,0,1,.975-.106,4.738,4.738,0,0,1,3.284,1.348,4.791,4.791,0,0,1,1.5,3.26.975.975,0,0,0,.063.25.983.983,0,0,1,.062.25,5.1,5.1,0,0,1-4.255,5.108,8.2,8.2,0,0,0-2.507-5.639,8.206,8.206,0,0,0-5.737-2.322,8.26,8.26,0,0,0-8.25,8.25,8.236,8.236,0,0,0,1.161,4.222v0Z" transform="translate(779 -213.771)" fill="#041e42"/>
  </g>
</svg>
