<svg xmlns="http://www.w3.org/2000/svg" xmlns:xlink="http://www.w3.org/1999/xlink" width="32" height="32" viewBox="0 0 32 32">
  <defs>
    <clipPath id="clip-Artboard_20">
      <rect width="32" height="32"/>
    </clipPath>
  </defs>
  <g id="Artboard_20" data-name="Artboard – 20" clip-path="url(#clip-Artboard_20)">
    <path id="Subtraction_41" data-name="Subtraction 41" d="M-769.588,116.5h0a5.175,5.175,0,0,1-3.8-2.742,7.7,7.7,0,0,1-.625-1.5c0-.142-.041-.207-.129-.207a.615.615,0,0,0-.247.082,5.319,5.319,0,0,1-2.241.5,5.475,5.475,0,0,1-5.263-4.506,6.129,6.129,0,0,1,1.135-4.842,5.052,5.052,0,0,1,3.617-2.039,1.334,1.334,0,0,0,1.126-.875,7.755,7.755,0,0,1,5.629-5.128A9.657,9.657,0,0,1-768.3,95a7.854,7.854,0,0,1,6.294,3.243.647.647,0,0,0,.5.25,4.513,4.513,0,0,1,.977-.11A4.247,4.247,0,0,1-756.5,101.5c.089.267.181.422.387.422a.776.776,0,0,0,.238-.047,4.551,4.551,0,0,1,.975-.106,4.74,4.74,0,0,1,3.284,1.348,4.8,4.8,0,0,1,1.5,3.26.971.971,0,0,0,.063.25.973.973,0,0,1,.063.25,5.1,5.1,0,0,1-4.256,5.109,8.206,8.206,0,0,0-2.507-5.639,8.207,8.207,0,0,0-5.737-2.322,8.26,8.26,0,0,0-8.25,8.25,8.239,8.239,0,0,0,1.161,4.222Z" transform="translate(782 -91.771)" fill="#041e42"/>
    <path id="Subtraction_46" data-name="Subtraction 46" d="M-524.5,12A6.507,6.507,0,0,1-531,5.5,6.507,6.507,0,0,1-524.5-1,6.507,6.507,0,0,1-518,5.5,6.507,6.507,0,0,1-524.5,12Zm3.075-7.4a1.018,1.018,0,0,0-.725.3,1.016,1.016,0,0,0-.3.724,1.018,1.018,0,0,0,.3.725,1.019,1.019,0,0,0,.725.3,1.014,1.014,0,0,0,.724-.3,1.018,1.018,0,0,0,.3-.725,1.016,1.016,0,0,0-.3-.724A1.016,1.016,0,0,0-521.425,4.6Zm-3.075,0a1.016,1.016,0,0,0-.724.3,1.016,1.016,0,0,0-.3.724,1.018,1.018,0,0,0,.3.725,1.015,1.015,0,0,0,.725.3,1.015,1.015,0,0,0,.724-.3,1.019,1.019,0,0,0,.3-.725,1.016,1.016,0,0,0-.3-.724A1.018,1.018,0,0,0-524.5,4.6Zm-3.074,0a1.016,1.016,0,0,0-.724.3,1.016,1.016,0,0,0-.3.724,1.018,1.018,0,0,0,.3.725,1.015,1.015,0,0,0,.725.3,1.015,1.015,0,0,0,.724-.3,1.019,1.019,0,0,0,.3-.725,1.016,1.016,0,0,0-.3-.724A1.018,1.018,0,0,0-527.575,4.6Z" transform="translate(544 15)" fill="#8d8d8d"/>
    <g id="menu-2" transform="translate(15.401 19.597)">
      <path id="Path_168" data-name="Path 168" d="M388.415,193.633a1.025,1.025,0,1,1-1.449,0,1.025,1.025,0,0,1,1.449,0" transform="translate(-380.517 -193.333)" fill="#fff"/>
      <path id="Path_169" data-name="Path 169" d="M195.083,193.633a1.025,1.025,0,1,1-1.449,0,1.025,1.025,0,0,1,1.449,0" transform="translate(-190.259 -193.333)" fill="#fff"/>
      <path id="Path_170" data-name="Path 170" d="M1.75,193.633a1.025,1.025,0,1,1-1.449,0,1.025,1.025,0,0,1,1.449,0" transform="translate(-0.001 -193.333)" fill="#fff"/>
    </g>
  </g>
</svg>
