<svg xmlns="http://www.w3.org/2000/svg" xmlns:xlink="http://www.w3.org/1999/xlink" width="32" height="32" viewBox="0 0 32 32">
  <defs>
    <clipPath id="clip-Artboard_9">
      <rect width="32" height="32"/>
    </clipPath>
  </defs>
  <g id="Artboard_9" data-name="Artboard – 9" clip-path="url(#clip-Artboard_9)">
    <path id="Union_4" data-name="Union 4" d="M-760.1,308.867a6.457,6.457,0,0,1-1.9-4.6,6.457,6.457,0,0,1,1.9-4.6,6.457,6.457,0,0,1,4.6-1.9,6.456,6.456,0,0,1,4.6,1.9,6.453,6.453,0,0,1,1.9,4.6,6.453,6.453,0,0,1-1.9,4.6,6.453,6.453,0,0,1-4.6,1.9A6.453,6.453,0,0,1-760.1,308.867Zm1.917-4.959a.53.53,0,0,0-.165.384.541.541,0,0,0,.165.388l2.357,2.467a.526.526,0,0,0,.393.16h.007a.528.528,0,0,0,.394-.16l2.356-2.467a.538.538,0,0,0,.166-.388.534.534,0,0,0-.166-.384.569.569,0,0,0-.4-.159.569.569,0,0,0-.4.159l-1.4,1.483v-3.823a.556.556,0,0,0-.562-.547.549.549,0,0,0-.562.547v3.823l-1.4-1.483a.569.569,0,0,0-.4-.159A.569.569,0,0,0-758.179,303.908Zm-4.411,4.587a5.177,5.177,0,0,1-3.8-2.742,7.682,7.682,0,0,1-.625-1.5c0-.141-.041-.207-.129-.207a.613.613,0,0,0-.247.082,5.316,5.316,0,0,1-2.241.5,5.474,5.474,0,0,1-5.263-4.505,6.129,6.129,0,0,1,1.135-4.842,5.053,5.053,0,0,1,3.617-2.039,1.335,1.335,0,0,0,1.126-.875,7.752,7.752,0,0,1,5.629-5.128A9.649,9.649,0,0,1-761.3,287a7.853,7.853,0,0,1,6.294,3.243.645.645,0,0,0,.5.25,4.493,4.493,0,0,1,.977-.11A4.248,4.248,0,0,1-749.5,293.5c.089.267.181.422.387.422a.772.772,0,0,0,.239-.047,4.561,4.561,0,0,1,.975-.106,4.738,4.738,0,0,1,3.284,1.348,4.8,4.8,0,0,1,1.5,3.26.975.975,0,0,0,.062.25.975.975,0,0,1,.063.25,5.1,5.1,0,0,1-4.256,5.108,8.2,8.2,0,0,0-2.507-5.638,8.2,8.2,0,0,0-5.737-2.322,8.259,8.259,0,0,0-8.25,8.25,8.239,8.239,0,0,0,1.161,4.222v0Z" transform="translate(775 -283.771)" fill="#041e42"/>
  </g>
</svg>
