<svg xmlns="http://www.w3.org/2000/svg" xmlns:xlink="http://www.w3.org/1999/xlink" width="32" height="32" viewBox="0 0 32 32">
  <defs>
    <clipPath id="clip-Artboard_13">
      <rect width="32" height="32"/>
    </clipPath>
  </defs>
  <g id="Artboard_13" data-name="Artboard – 13" clip-path="url(#clip-Artboard_13)">
    <path id="Union_8" data-name="Union 8" d="M-764.1,328.867a6.458,6.458,0,0,1-1.9-4.6,6.458,6.458,0,0,1,1.9-4.6,6.458,6.458,0,0,1,4.6-1.9,6.458,6.458,0,0,1,4.6,1.9,6.458,6.458,0,0,1,1.9,4.6,6.459,6.459,0,0,1-1.9,4.6,6.458,6.458,0,0,1-4.6,1.9A6.458,6.458,0,0,1-764.1,328.867Zm6.944-1.347a.656.656,0,0,0,.463.192.569.569,0,0,0,.069,0,.663.663,0,0,0,.434-.162l.031-.031a.658.658,0,0,0,.178-.474.656.656,0,0,0-.209-.461l-2.348-2.335,2.348-2.348a.664.664,0,0,0-.031-.868.665.665,0,0,0-.483-.21.659.659,0,0,0-.452.178l-2.318,2.318-2.365-2.351a.662.662,0,0,0-.43-.159.662.662,0,0,0-.43.159.661.661,0,0,0-.072.932l2.358,2.358-2.358,2.358a.663.663,0,0,0,0,.932.662.662,0,0,0,.43.159h.072a.662.662,0,0,0,.43-.159l2.358-2.358Zm-9.437.975a5.177,5.177,0,0,1-3.8-2.742,7.768,7.768,0,0,1-.625-1.5c0-.141-.04-.207-.129-.207a.622.622,0,0,0-.247.082,5.314,5.314,0,0,1-2.241.5,5.476,5.476,0,0,1-5.263-4.506,6.13,6.13,0,0,1,1.136-4.842,5.053,5.053,0,0,1,3.616-2.038,1.332,1.332,0,0,0,1.126-.875,7.757,7.757,0,0,1,5.629-5.128A9.653,9.653,0,0,1-765.3,307a7.854,7.854,0,0,1,6.294,3.243.646.646,0,0,0,.5.25,4.509,4.509,0,0,1,.977-.11,4.247,4.247,0,0,1,4.026,3.112c.089.267.181.422.388.422a.768.768,0,0,0,.238-.047,4.565,4.565,0,0,1,.975-.106,4.738,4.738,0,0,1,3.284,1.348,4.791,4.791,0,0,1,1.5,3.26.975.975,0,0,0,.063.25.984.984,0,0,1,.062.25,5.1,5.1,0,0,1-4.255,5.108,8.2,8.2,0,0,0-2.507-5.638,8.206,8.206,0,0,0-5.737-2.322,8.26,8.26,0,0,0-8.25,8.25,8.236,8.236,0,0,0,1.161,4.222v0Z" transform="translate(779 -303.771)" fill="#041e42"/>
  </g>
</svg>
