<svg xmlns="http://www.w3.org/2000/svg" xmlns:xlink="http://www.w3.org/1999/xlink" width="32" height="32" viewBox="0 0 32 32">
  <defs>
    <clipPath id="clip-Artboard_2">
      <rect width="32" height="32"/>
    </clipPath>
  </defs>
  <g id="Artboard_2" data-name="Artboard – 2" clip-path="url(#clip-Artboard_2)">
    <path id="Union_3" data-name="Union 3" d="M-762,352.271a6.507,6.507,0,0,1,6.5-6.5,6.508,6.508,0,0,1,6.5,6.5,6.508,6.508,0,0,1-6.5,6.5A6.507,6.507,0,0,1-762,352.271Zm2.627-.6a.813.813,0,0,0,0,1.146l2.205,2.2a.8.8,0,0,0,.572.237.8.8,0,0,0,.573-.237l4.27-4.27a.8.8,0,0,0,.238-.572.809.809,0,0,0-.238-.574.8.8,0,0,0-.572-.237.806.806,0,0,0-.573.237l-3.7,3.7-1.632-1.632a.8.8,0,0,0-.572-.237A.806.806,0,0,0-759.373,351.67Zm-3.217,4.825a5.172,5.172,0,0,1-3.8-2.742,7.658,7.658,0,0,1-.625-1.5c0-.141-.041-.207-.129-.207a.613.613,0,0,0-.247.082,5.317,5.317,0,0,1-2.241.5,5.476,5.476,0,0,1-5.263-4.506,6.13,6.13,0,0,1,1.135-4.842,5.056,5.056,0,0,1,3.617-2.038,1.334,1.334,0,0,0,1.126-.875,7.754,7.754,0,0,1,5.629-5.128A9.649,9.649,0,0,1-761.3,335a7.856,7.856,0,0,1,6.294,3.243.645.645,0,0,0,.5.25,4.549,4.549,0,0,1,.977-.109A4.248,4.248,0,0,1-749.5,341.5c.089.267.181.422.387.422a.772.772,0,0,0,.239-.047,4.559,4.559,0,0,1,.975-.106,4.738,4.738,0,0,1,3.284,1.348,4.8,4.8,0,0,1,1.5,3.26.966.966,0,0,0,.062.25.993.993,0,0,1,.063.25,5.1,5.1,0,0,1-4.256,5.109,8.2,8.2,0,0,0-2.507-5.639,8.208,8.208,0,0,0-5.737-2.322,8.26,8.26,0,0,0-8.25,8.25,8.236,8.236,0,0,0,1.161,4.222v0Z" transform="translate(775 -331.771)" fill="#041e42"/>
  </g>
</svg>
