<svg xmlns="http://www.w3.org/2000/svg" xmlns:xlink="http://www.w3.org/1999/xlink" width="32" height="32" viewBox="0 0 32 32">
  <defs>
    <clipPath id="clip-Artboard_33">
      <rect width="32" height="32"/>
    </clipPath>
  </defs>
  <g id="Artboard_33" data-name="Artboard – 33" clip-path="url(#clip-Artboard_33)">
    <path id="Union_14" data-name="Union 14" d="M-762.03,105.26a6.478,6.478,0,0,1-2.066-1.392,6.5,6.5,0,0,1-1.393-2.066,6.467,6.467,0,0,1-.51-2.53,6.467,6.467,0,0,1,.51-2.53,6.475,6.475,0,0,1,1.393-2.066,6.5,6.5,0,0,1,2.066-1.393,6.466,6.466,0,0,1,2.53-.51,6.466,6.466,0,0,1,2.53.51,6.485,6.485,0,0,1,2.066,1.393,6.485,6.485,0,0,1,1.393,2.066,6.467,6.467,0,0,1,.51,2.53,6.467,6.467,0,0,1-.51,2.53,6.5,6.5,0,0,1-1.393,2.066,6.468,6.468,0,0,1-2.066,1.392,6.451,6.451,0,0,1-2.53.511A6.451,6.451,0,0,1-762.03,105.26Zm1.466-2.54a.98.98,0,0,0,.967.967.961.961,0,0,0,.691-.305.863.863,0,0,0,.253-.638.944.944,0,0,0-.262-.7.938.938,0,0,0-.682-.291A.98.98,0,0,0-760.564,102.72Zm.727-7.755a1.054,1.054,0,0,0-.746,1.057c.012.156.023.317.032.46s.022.308.032.46c.033.578.066,1.149.1,1.72v.015c.033.576.066,1.152.1,1.734a.707.707,0,0,0,.723.68.722.722,0,0,0,.724-.7c0-.237,0-.46.023-.7.021-.375.044-.753.066-1.12v-.011c.022-.364.044-.739.066-1.109.012-.242.028-.488.044-.725s.033-.483.044-.725a1.191,1.191,0,0,0-.088-.483.965.965,0,0,0-.885-.572A1.018,1.018,0,0,0-759.837,94.964Zm-6.754,8.53a5.177,5.177,0,0,1-3.8-2.742,7.768,7.768,0,0,1-.625-1.5c0-.141-.04-.207-.129-.207a.621.621,0,0,0-.247.082,5.314,5.314,0,0,1-2.241.5,5.476,5.476,0,0,1-5.263-4.506,6.13,6.13,0,0,1,1.136-4.842,5.053,5.053,0,0,1,3.616-2.038,1.332,1.332,0,0,0,1.126-.875,7.757,7.757,0,0,1,5.629-5.128A9.654,9.654,0,0,1-765.3,82a7.854,7.854,0,0,1,6.294,3.243.646.646,0,0,0,.5.25,4.507,4.507,0,0,1,.977-.11,4.247,4.247,0,0,1,4.026,3.112c.089.267.181.422.388.422a.768.768,0,0,0,.238-.047,4.566,4.566,0,0,1,.975-.106,4.738,4.738,0,0,1,3.284,1.348,4.791,4.791,0,0,1,1.5,3.26.975.975,0,0,0,.063.25.983.983,0,0,1,.062.25,5.1,5.1,0,0,1-4.255,5.108,8.2,8.2,0,0,0-2.507-5.638,8.206,8.206,0,0,0-5.737-2.322,8.26,8.26,0,0,0-8.25,8.25,8.236,8.236,0,0,0,1.161,4.222v0Z" transform="translate(779 -78.771)" fill="#041e42"/>
  </g>
</svg>
