<svg xmlns="http://www.w3.org/2000/svg" xmlns:xlink="http://www.w3.org/1999/xlink" width="32" height="32" viewBox="0 0 32 32">
  <defs>
    <clipPath id="clip-Artboard_25">
      <rect width="32" height="32"/>
    </clipPath>
  </defs>
  <g id="Artboard_25" data-name="Artboard – 25" clip-path="url(#clip-Artboard_25)">
    <path id="Union_11" data-name="Union 11" d="M-762.03,192.26a6.481,6.481,0,0,1-2.066-1.393,6.481,6.481,0,0,1-1.393-2.066,6.474,6.474,0,0,1-.51-2.531,6.47,6.47,0,0,1,.51-2.53,6.481,6.481,0,0,1,1.393-2.065,6.48,6.48,0,0,1,2.066-1.393,6.451,6.451,0,0,1,2.53-.511,6.451,6.451,0,0,1,2.53.511,6.47,6.47,0,0,1,2.066,1.393,6.481,6.481,0,0,1,1.393,2.065,6.47,6.47,0,0,1,.51,2.53,6.474,6.474,0,0,1-.51,2.531,6.481,6.481,0,0,1-1.393,2.066,6.471,6.471,0,0,1-2.066,1.393,6.451,6.451,0,0,1-2.53.511A6.451,6.451,0,0,1-762.03,192.26Zm3.15-8.039v4.344a.84.84,0,0,0,.839.839.84.84,0,0,0,.84-.839v-4.344a.84.84,0,0,0-.84-.839A.84.84,0,0,0-758.88,184.221Zm-3.148,0v4.344a.84.84,0,0,0,.839.839.84.84,0,0,0,.839-.839v-4.344a.84.84,0,0,0-.839-.839A.84.84,0,0,0-762.028,184.221Zm-4.562,6.274a5.177,5.177,0,0,1-3.8-2.742,7.792,7.792,0,0,1-.625-1.5c0-.141-.04-.207-.129-.207a.622.622,0,0,0-.247.082,5.313,5.313,0,0,1-2.241.5,5.474,5.474,0,0,1-5.263-4.505,6.13,6.13,0,0,1,1.136-4.842,5.05,5.05,0,0,1,3.616-2.038,1.333,1.333,0,0,0,1.126-.875,7.755,7.755,0,0,1,5.629-5.128A9.654,9.654,0,0,1-765.3,169a7.852,7.852,0,0,1,6.294,3.243.649.649,0,0,0,.5.25,4.508,4.508,0,0,1,.977-.11,4.247,4.247,0,0,1,4.026,3.112c.089.267.181.422.388.422a.768.768,0,0,0,.238-.047,4.566,4.566,0,0,1,.975-.106,4.741,4.741,0,0,1,3.284,1.347,4.793,4.793,0,0,1,1.5,3.261.993.993,0,0,0,.063.25.966.966,0,0,1,.062.25,5.1,5.1,0,0,1-4.255,5.108,8.2,8.2,0,0,0-2.507-5.638,8.206,8.206,0,0,0-5.737-2.322,8.26,8.26,0,0,0-8.25,8.25,8.239,8.239,0,0,0,1.161,4.222v0Z" transform="translate(779 -165.771)" fill="#041e42"/>
  </g>
</svg>
