<svg xmlns="http://www.w3.org/2000/svg" xmlns:xlink="http://www.w3.org/1999/xlink" width="32" height="32" viewBox="0 0 32 32">
  <defs>
    <clipPath id="clip-Artboard_1">
      <rect width="32" height="32"/>
    </clipPath>
  </defs>
  <g id="Artboard_1" data-name="Artboard – 1" clip-path="url(#clip-Artboard_1)">
    <path id="Subtraction_41" data-name="Subtraction 41" d="M-769.588,116.5h0a5.175,5.175,0,0,1-3.8-2.742,7.7,7.7,0,0,1-.625-1.5c0-.142-.041-.207-.129-.207a.615.615,0,0,0-.247.082,5.319,5.319,0,0,1-2.241.5,5.475,5.475,0,0,1-5.263-4.506,6.129,6.129,0,0,1,1.135-4.842,5.052,5.052,0,0,1,3.617-2.039,1.334,1.334,0,0,0,1.126-.875,7.755,7.755,0,0,1,5.629-5.128A9.657,9.657,0,0,1-768.3,95a7.854,7.854,0,0,1,6.294,3.243.647.647,0,0,0,.5.25,4.513,4.513,0,0,1,.977-.11A4.247,4.247,0,0,1-756.5,101.5c.089.267.181.422.387.422a.776.776,0,0,0,.238-.047,4.551,4.551,0,0,1,.975-.106,4.74,4.74,0,0,1,3.284,1.348,4.8,4.8,0,0,1,1.5,3.26.971.971,0,0,0,.063.25.973.973,0,0,1,.063.25,5.1,5.1,0,0,1-4.256,5.109,8.206,8.206,0,0,0-2.507-5.639,8.207,8.207,0,0,0-5.737-2.322,8.26,8.26,0,0,0-8.25,8.25,8.239,8.239,0,0,0,1.161,4.222Z" transform="translate(782 -91.771)" fill="#041e42"/>
    <g id="Group_58" data-name="Group 58">
      <path id="Path_209" data-name="Path 209" d="M-775.5,108a6.507,6.507,0,0,1-6.5-6.5,6.507,6.507,0,0,1,6.5-6.5,6.508,6.508,0,0,1,6.5,6.5A6.508,6.508,0,0,1-775.5,108Zm-3.3-7.338a.807.807,0,0,0-.573.237.812.812,0,0,0,0,1.146l2.205,2.205a.8.8,0,0,0,.572.237.805.805,0,0,0,.573-.237l4.27-4.271a.8.8,0,0,0,.238-.572.806.806,0,0,0-.238-.574.8.8,0,0,0-.573-.237.807.807,0,0,0-.573.237l-3.7,3.7-1.632-1.632A.8.8,0,0,0-778.8,100.662Z" transform="translate(795 -81)" fill="#00b100"/>
      <path id="Path_173" data-name="Path 173" d="M7.857,56.571l-4.27,4.27a.81.81,0,0,1-1.146,0l-2.2-2.2A.81.81,0,0,1,1.382,57.49l1.632,1.632,3.7-3.7a.81.81,0,0,1,1.146,1.146Z" transform="translate(15.39 -37.591)" fill="#fff"/>
    </g>
  </g>
</svg>
