<svg xmlns="http://www.w3.org/2000/svg" xmlns:xlink="http://www.w3.org/1999/xlink" width="32" height="32" viewBox="0 0 32 32">
  <defs>
    <clipPath id="clip-Artboard_29">
      <rect width="32" height="32"/>
    </clipPath>
  </defs>
  <g id="Artboard_29" data-name="Artboard – 29" clip-path="url(#clip-Artboard_29)">
    <path id="Union_15" data-name="Union 15" d="M-766,141.27a6.507,6.507,0,0,1,6.5-6.5,6.507,6.507,0,0,1,6.5,6.5,6.507,6.507,0,0,1-6.5,6.5A6.507,6.507,0,0,1-766,141.27Zm6.514,1.353-1.771,1.3a.055.055,0,0,0-.022.045.049.049,0,0,0,.022.041l1.769,1.3a.059.059,0,0,0,.038.013.058.058,0,0,0,.061-.057v-.86a3.218,3.218,0,0,0,3.032-2.3,3.212,3.212,0,0,0,.108-1.268,3.144,3.144,0,0,0-.675-1.612.449.449,0,0,0-.352-.171.435.435,0,0,0-.259.085.437.437,0,0,0-.175.3.437.437,0,0,0,.094.335,2.276,2.276,0,0,1,.506,1.319,2.307,2.307,0,0,1-.18,1.014,2.314,2.314,0,0,1-2.1,1.421v-.859a.06.06,0,0,0-.062-.056A.06.06,0,0,0-759.486,142.623Zm-.1-5.63v.86a3.226,3.226,0,0,0-3.033,2.3,3.19,3.19,0,0,0-.107,1.268,3.161,3.161,0,0,0,.676,1.612.443.443,0,0,0,.351.171.439.439,0,0,0,.26-.086.437.437,0,0,0,.177-.3.436.436,0,0,0-.094-.334,2.3,2.3,0,0,1-.5-1.32,2.283,2.283,0,0,1,.179-1.013,2.32,2.32,0,0,1,2.1-1.421v.859a.059.059,0,0,0,.061.058.066.066,0,0,0,.038-.013l1.769-1.3a.049.049,0,0,0,.022-.041.056.056,0,0,0-.022-.046l-1.77-1.3a.064.064,0,0,0-.038-.013A.059.059,0,0,0-759.588,136.993Zm-7,8.5a5.177,5.177,0,0,1-3.8-2.742,7.792,7.792,0,0,1-.625-1.5c0-.141-.04-.207-.129-.207a.622.622,0,0,0-.247.082,5.313,5.313,0,0,1-2.241.5,5.474,5.474,0,0,1-5.263-4.505,6.13,6.13,0,0,1,1.136-4.842,5.05,5.05,0,0,1,3.616-2.038,1.333,1.333,0,0,0,1.126-.875,7.755,7.755,0,0,1,5.629-5.128A9.654,9.654,0,0,1-765.3,124a7.852,7.852,0,0,1,6.294,3.243.649.649,0,0,0,.5.25,4.507,4.507,0,0,1,.977-.11,4.247,4.247,0,0,1,4.026,3.112c.089.267.181.422.388.422a.768.768,0,0,0,.238-.047,4.566,4.566,0,0,1,.975-.106,4.741,4.741,0,0,1,3.284,1.347,4.793,4.793,0,0,1,1.5,3.261.993.993,0,0,0,.063.25.966.966,0,0,1,.062.25,5.1,5.1,0,0,1-4.255,5.108,8.2,8.2,0,0,0-2.507-5.638,8.206,8.206,0,0,0-5.737-2.322,8.26,8.26,0,0,0-8.25,8.25,8.239,8.239,0,0,0,1.161,4.222v0Z" transform="translate(779 -120.771)" fill="#041e42"/>
  </g>
</svg>
