<svg xmlns="http://www.w3.org/2000/svg" xmlns:xlink="http://www.w3.org/1999/xlink" width="32" height="32" viewBox="0 0 32 32">
  <defs>
    <clipPath id="clip-Artboard_16">
      <rect width="32" height="32"/>
    </clipPath>
  </defs>
  <g id="Artboard_16" data-name="Artboard – 16" clip-path="url(#clip-Artboard_16)">
    <path id="Subtraction_41" data-name="Subtraction 41" d="M-769.588,116.5h0a5.175,5.175,0,0,1-3.8-2.742,7.7,7.7,0,0,1-.625-1.5c0-.142-.041-.207-.129-.207a.615.615,0,0,0-.247.082,5.319,5.319,0,0,1-2.241.5,5.475,5.475,0,0,1-5.263-4.506,6.129,6.129,0,0,1,1.135-4.842,5.052,5.052,0,0,1,3.617-2.039,1.334,1.334,0,0,0,1.126-.875,7.755,7.755,0,0,1,5.629-5.128A9.657,9.657,0,0,1-768.3,95a7.854,7.854,0,0,1,6.294,3.243.647.647,0,0,0,.5.25,4.513,4.513,0,0,1,.977-.11A4.247,4.247,0,0,1-756.5,101.5c.089.267.181.422.387.422a.776.776,0,0,0,.238-.047,4.551,4.551,0,0,1,.975-.106,4.74,4.74,0,0,1,3.284,1.348,4.8,4.8,0,0,1,1.5,3.26.971.971,0,0,0,.063.25.973.973,0,0,1,.063.25,5.1,5.1,0,0,1-4.256,5.109,8.206,8.206,0,0,0-2.507-5.639,8.207,8.207,0,0,0-5.737-2.322,8.26,8.26,0,0,0-8.25,8.25,8.239,8.239,0,0,0,1.161,4.222Z" transform="translate(782 -91.771)" fill="#041e42"/>
    <g id="Group_65" data-name="Group 65">
      <path id="Path_208" data-name="Path 208" d="M-524.5,12a6.46,6.46,0,0,1-2.53-.511A6.479,6.479,0,0,1-529.1,10.1a6.479,6.479,0,0,1-1.393-2.066A6.459,6.459,0,0,1-531,5.5a6.459,6.459,0,0,1,.511-2.53A6.479,6.479,0,0,1-529.1.9,6.479,6.479,0,0,1-527.03-.489,6.46,6.46,0,0,1-524.5-1a6.46,6.46,0,0,1,2.53.511A6.478,6.478,0,0,1-519.9.9a6.477,6.477,0,0,1,1.393,2.066A6.46,6.46,0,0,1-518,5.5a6.46,6.46,0,0,1-.511,2.53A6.477,6.477,0,0,1-519.9,10.1a6.478,6.478,0,0,1-2.066,1.393A6.46,6.46,0,0,1-524.5,12Zm-1.114-3.741a.567.567,0,0,0-.566.567.567.567,0,0,0,.566.566h2.229a.567.567,0,0,0,.567-.566.567.567,0,0,0-.567-.567h-.548V4.368A.567.567,0,0,0-524.5,3.8h-1.114a.567.567,0,0,0-.566.566.567.567,0,0,0,.566.567h.548V8.259Zm1.114-6.842a.709.709,0,0,0-.708.708.709.709,0,0,0,.708.709.709.709,0,0,0,.708-.709A.709.709,0,0,0-524.5,1.418Z" transform="translate(544 15)" fill="#0067e0"/>
      <path id="info-2" d="M200.03,107.163a.567.567,0,0,1-.567.567h-2.229a.567.567,0,1,1,0-1.133h.548v-3.324h-.548a.567.567,0,1,1,0-1.133h1.114a.567.567,0,0,1,.567.567V106.6h.548A.567.567,0,0,1,200.03,107.163Zm-2.389-6.7a.708.708,0,1,1,.708.708A.708.708,0,0,1,197.641,100.463Zm0,0" transform="translate(-178.849 -83.337)" fill="#fff"/>
    </g>
  </g>
</svg>
