<svg xmlns="http://www.w3.org/2000/svg" xmlns:xlink="http://www.w3.org/1999/xlink" width="32" height="32" viewBox="0 0 32 32">
  <defs>
    <clipPath id="clip-Artboard_17">
      <rect width="32" height="32"/>
    </clipPath>
  </defs>
  <g id="Artboard_17" data-name="Artboard – 17" clip-path="url(#clip-Artboard_17)">
    <path id="Union_9" data-name="Union 9" d="M-762.03,285.26a6.479,6.479,0,0,1-2.066-1.392,6.5,6.5,0,0,1-1.393-2.066,6.467,6.467,0,0,1-.51-2.53,6.467,6.467,0,0,1,.51-2.53,6.475,6.475,0,0,1,1.393-2.066,6.5,6.5,0,0,1,2.066-1.393,6.466,6.466,0,0,1,2.53-.51,6.466,6.466,0,0,1,2.53.51,6.485,6.485,0,0,1,2.066,1.393,6.485,6.485,0,0,1,1.393,2.066,6.467,6.467,0,0,1,.51,2.53,6.467,6.467,0,0,1-.51,2.53,6.5,6.5,0,0,1-1.393,2.066,6.469,6.469,0,0,1-2.066,1.392,6.451,6.451,0,0,1-2.53.511A6.451,6.451,0,0,1-762.03,285.26Zm.849-2.663a.568.568,0,0,0,.567.567h2.228a.568.568,0,0,0,.567-.567.567.567,0,0,0-.567-.566h-.547v-3.892a.567.567,0,0,0-.567-.566h-1.114a.567.567,0,0,0-.567.566.568.568,0,0,0,.567.567h.548v3.325h-.548A.567.567,0,0,0-761.181,282.6Zm.973-6.7a.709.709,0,0,0,.708.708.709.709,0,0,0,.708-.708.709.709,0,0,0-.708-.708A.709.709,0,0,0-760.208,275.9Zm-6.382,7.6a5.177,5.177,0,0,1-3.8-2.742,7.768,7.768,0,0,1-.625-1.5c0-.141-.04-.207-.129-.207a.622.622,0,0,0-.247.082,5.314,5.314,0,0,1-2.241.5,5.476,5.476,0,0,1-5.263-4.506,6.13,6.13,0,0,1,1.136-4.842,5.053,5.053,0,0,1,3.616-2.038,1.332,1.332,0,0,0,1.126-.875,7.757,7.757,0,0,1,5.629-5.128A9.653,9.653,0,0,1-765.3,262a7.854,7.854,0,0,1,6.294,3.243.646.646,0,0,0,.5.25,4.507,4.507,0,0,1,.977-.11,4.247,4.247,0,0,1,4.026,3.112c.089.267.181.422.388.422a.768.768,0,0,0,.238-.047,4.565,4.565,0,0,1,.975-.106,4.738,4.738,0,0,1,3.284,1.348,4.791,4.791,0,0,1,1.5,3.26.975.975,0,0,0,.063.25.984.984,0,0,1,.062.25,5.1,5.1,0,0,1-4.255,5.108,8.2,8.2,0,0,0-2.507-5.638,8.206,8.206,0,0,0-5.737-2.322,8.26,8.26,0,0,0-8.25,8.25,8.236,8.236,0,0,0,1.161,4.222v0Z" transform="translate(779 -258.771)" fill="#041e42"/>
  </g>
</svg>
