<svg xmlns="http://www.w3.org/2000/svg" xmlns:xlink="http://www.w3.org/1999/xlink" width="548" height="512" viewBox="0 0 548 512">
  <defs>
    <clipPath id="clip-Artboard_88">
      <rect width="548" height="512"/>
    </clipPath>
  </defs>
  <g id="Artboard_88" data-name="Artboard – 88" clip-path="url(#clip-Artboard_88)">
    <g id="history-3" transform="translate(1.003 -2)">
      <path id="Path_270" data-name="Path 270" d="M36.113,168.609l86.41,64.807A14.4,14.4,0,0,0,139.8,210.374l-80-60.559V27.4a14.4,14.4,0,1,0-28.8,0V157.016a14.891,14.891,0,0,0,5.113,11.593Z" transform="translate(247.2 98.532)" fill="#223143"/>
      <path id="Path_271" data-name="Path 271" d="M290.137,2a255.984,255.984,0,0,0-252.4,213.32l-6.485-9.642A17.087,17.087,0,0,0,2.923,224.791l34.131,51.2a17.073,17.073,0,0,0,12.458,7.594h1.707a17.031,17.031,0,0,0,12.031-5.034l42.664-42.664a17.075,17.075,0,0,0-24.148-24.148L71.186,222.4C90.837,101.458,204.809,19.356,325.744,39.007S528.8,172.622,509.148,293.565A221.852,221.852,0,0,1,290.137,479.836a210,210,0,0,1-173.813-86.693,17.071,17.071,0,0,0-27.817,19.8,243.784,243.784,0,0,0,201.63,101.028c141.38,0,255.984-114.6,255.984-255.984S431.517,2,290.137,2Z" transform="translate(0 0)" fill="#223143"/>
    </g>
  </g>
</svg>
