<svg xmlns="http://www.w3.org/2000/svg" xmlns:xlink="http://www.w3.org/1999/xlink" width="512" height="512" viewBox="0 0 512 512">
  <defs>
    <clipPath id="clip-Artboard_59">
      <rect width="512" height="512"/>
    </clipPath>
  </defs>
  <g id="Artboard_59" data-name="Artboard – 59" clip-path="url(#clip-Artboard_59)">
    <path id="Path_255" data-name="Path 255" d="M87.759,23a3.1,3.1,0,0,0-2.977,2.152L23.109,255.414a3.071,3.071,0,0,0,3,3.871H158.821L76.748,486.912a3.144,3.144,0,0,0,1.612,3.77,3.076,3.076,0,0,0,1.354.317,3.5,3.5,0,0,0,2.874-1.768L175.9,357.309,245.322,235.63H140.605L236.453,27.415A3.052,3.052,0,0,0,233.713,23H87.759m0-22H233.723a25.052,25.052,0,0,1,22.412,36.244L174.95,213.63h81.186a24.684,24.684,0,0,1,20.78,11.018L194.483,369.14l-93.934,132.8A25.129,25.129,0,0,1,55.8,480.191l71.7-198.906H26.109a25.071,25.071,0,0,1-24.24-31.6L63.532,19.46A25.129,25.129,0,0,1,87.759,1Z" transform="translate(117.041 -1)" fill="#223143"/>
  </g>
</svg>
