<svg xmlns="http://www.w3.org/2000/svg" xmlns:xlink="http://www.w3.org/1999/xlink" width="32" height="32" viewBox="0 0 32 32">
  <defs>
    <clipPath id="clip-Artboard_28">
      <rect width="32" height="32"/>
    </clipPath>
  </defs>
  <g id="Artboard_28" data-name="Artboard – 28" clip-path="url(#clip-Artboard_28)">
    <g id="Group_71" data-name="Group 71">
      <g id="Group_57" data-name="Group 57">
        <path id="Subtraction_41" data-name="Subtraction 41" d="M-769.588,116.5h0a5.175,5.175,0,0,1-3.8-2.742,7.7,7.7,0,0,1-.625-1.5c0-.142-.041-.207-.129-.207a.615.615,0,0,0-.247.082,5.319,5.319,0,0,1-2.241.5,5.475,5.475,0,0,1-5.263-4.506,6.129,6.129,0,0,1,1.135-4.842,5.052,5.052,0,0,1,3.617-2.039,1.334,1.334,0,0,0,1.126-.875,7.755,7.755,0,0,1,5.629-5.128A9.657,9.657,0,0,1-768.3,95a7.854,7.854,0,0,1,6.294,3.243.647.647,0,0,0,.5.25,4.513,4.513,0,0,1,.977-.11A4.247,4.247,0,0,1-756.5,101.5c.089.267.181.422.387.422a.776.776,0,0,0,.238-.047,4.551,4.551,0,0,1,.975-.106,4.74,4.74,0,0,1,3.284,1.348,4.8,4.8,0,0,1,1.5,3.26.971.971,0,0,0,.063.25.973.973,0,0,1,.063.25,5.1,5.1,0,0,1-4.256,5.109,8.206,8.206,0,0,0-2.507-5.639,8.207,8.207,0,0,0-5.737-2.322,8.26,8.26,0,0,0-8.25,8.25,8.239,8.239,0,0,0,1.161,4.222Z" transform="translate(782 -91.771)" fill="#041e42"/>
      </g>
      <g id="Group_70" data-name="Group 70">
        <path id="Path_205" data-name="Path 205" d="M-524.5,12a6.46,6.46,0,0,1-2.53-.511A6.479,6.479,0,0,1-529.1,10.1a6.479,6.479,0,0,1-1.393-2.066A6.459,6.459,0,0,1-531,5.5a6.459,6.459,0,0,1,.511-2.53A6.479,6.479,0,0,1-529.1.9,6.479,6.479,0,0,1-527.03-.489,6.46,6.46,0,0,1-524.5-1a6.46,6.46,0,0,1,2.53.511A6.478,6.478,0,0,1-519.9.9a6.477,6.477,0,0,1,1.393,2.066A6.46,6.46,0,0,1-518,5.5a6.46,6.46,0,0,1-.511,2.53A6.477,6.477,0,0,1-519.9,10.1a6.478,6.478,0,0,1-2.066,1.393A6.46,6.46,0,0,1-524.5,12Zm.052-5.159a.063.063,0,0,0-.038.012l-1.771,1.3a.056.056,0,0,0-.022.045.052.052,0,0,0,.022.042l1.769,1.3a.069.069,0,0,0,.038.012.058.058,0,0,0,.061-.057V8.637a3.163,3.163,0,0,0,1.911-.662,3.225,3.225,0,0,0,1.122-1.639,3.223,3.223,0,0,0,.108-1.269,3.141,3.141,0,0,0-.674-1.612.45.45,0,0,0-.352-.171.435.435,0,0,0-.259.085.437.437,0,0,0-.175.3.439.439,0,0,0,.094.334,2.272,2.272,0,0,1,.505,1.32,2.3,2.3,0,0,1-.179,1.014,2.315,2.315,0,0,1-2.1,1.421V6.9a.054.054,0,0,0-.019-.041A.065.065,0,0,0-524.448,6.841Zm-.079-5.674a.059.059,0,0,0-.062.057v.861a3.168,3.168,0,0,0-1.91.664,3.233,3.233,0,0,0-1.122,1.638,3.187,3.187,0,0,0-.108,1.269,3.156,3.156,0,0,0,.676,1.612.446.446,0,0,0,.352.171.436.436,0,0,0,.26-.085.437.437,0,0,0,.177-.3.438.438,0,0,0-.093-.334,2.3,2.3,0,0,1-.506-1.32,2.284,2.284,0,0,1,.179-1.014,2.319,2.319,0,0,1,2.1-1.421v.859a.058.058,0,0,0,.061.057.065.065,0,0,0,.038-.012l1.769-1.3a.052.052,0,0,0,.022-.042.056.056,0,0,0-.022-.045l-1.771-1.3A.063.063,0,0,0-524.527,1.167Z" transform="translate(544 15)" fill="#009dff"/>
        <g id="refresh" transform="translate(16.25 16.167)">
          <g id="Group_69" data-name="Group 69" transform="translate(0 0)">
            <path id="Path_175" data-name="Path 175" d="M54.659,4.488A3.2,3.2,0,0,1,57.8.917V.057a.062.062,0,0,1,.1-.044l1.771,1.3a.054.054,0,0,1,0,.087L57.9,2.7a.061.061,0,0,1-.1-.044V1.8a2.318,2.318,0,0,0-2.1,1.421,2.289,2.289,0,0,0,.326,2.334.442.442,0,1,1-.695.546A3.157,3.157,0,0,1,54.659,4.488Zm5.112-1.653A2.289,2.289,0,0,1,60.1,5.169,2.315,2.315,0,0,1,58,6.589V5.731a.062.062,0,0,0-.1-.044l-1.771,1.3a.054.054,0,0,0,0,.087l1.769,1.3a.061.061,0,0,0,.1-.044V7.47a3.2,3.2,0,0,0,3.14-3.57,3.141,3.141,0,0,0-.674-1.612.441.441,0,1,0-.693.546Z" transform="translate(-54.637 0)" fill="#fff"/>
          </g>
        </g>
      </g>
    </g>
  </g>
</svg>
