<svg xmlns="http://www.w3.org/2000/svg" xmlns:xlink="http://www.w3.org/1999/xlink" width="32" height="32" viewBox="0 0 32 32">
  <defs>
    <clipPath id="clip-Artboard_23">
      <rect width="32" height="32"/>
    </clipPath>
  </defs>
  <g id="Artboard_23" data-name="Artboard – 23" clip-path="url(#clip-Artboard_23)">
    <path id="Union_6" data-name="Union 6" d="M-692,235.271a6.507,6.507,0,0,1,6.5-6.5,6.507,6.507,0,0,1,6.5,6.5,6.507,6.507,0,0,1-6.5,6.5A6.507,6.507,0,0,1-692,235.271Zm8.85-.6a1.018,1.018,0,0,0-.3.724,1.022,1.022,0,0,0,.3.725,1.021,1.021,0,0,0,.725.3,1.015,1.015,0,0,0,.724-.3,1.018,1.018,0,0,0,.3-.725,1.015,1.015,0,0,0-.3-.724,1.013,1.013,0,0,0-.724-.3A1.015,1.015,0,0,0-683.15,234.669Zm-3.074,0a1.018,1.018,0,0,0-.3.724,1.022,1.022,0,0,0,.3.725,1.018,1.018,0,0,0,.724.3,1.016,1.016,0,0,0,.724-.3,1.018,1.018,0,0,0,.3-.725,1.015,1.015,0,0,0-.3-.724,1.015,1.015,0,0,0-.724-.3A1.015,1.015,0,0,0-686.225,234.669Zm-3.074,0a1.018,1.018,0,0,0-.3.724,1.022,1.022,0,0,0,.3.725,1.018,1.018,0,0,0,.724.3,1.016,1.016,0,0,0,.724-.3,1.018,1.018,0,0,0,.3-.725,1.015,1.015,0,0,0-.3-.724,1.015,1.015,0,0,0-.724-.3A1.015,1.015,0,0,0-689.3,234.669Zm-3.291,4.826a5.171,5.171,0,0,1-3.8-2.742,7.633,7.633,0,0,1-.625-1.5c0-.141-.041-.207-.13-.207a.614.614,0,0,0-.246.082,5.32,5.32,0,0,1-2.241.5,5.475,5.475,0,0,1-5.263-4.506,6.126,6.126,0,0,1,1.135-4.842,5.055,5.055,0,0,1,3.617-2.038,1.334,1.334,0,0,0,1.126-.875,7.754,7.754,0,0,1,5.629-5.128A9.646,9.646,0,0,1-691.3,218a7.856,7.856,0,0,1,6.295,3.243.645.645,0,0,0,.5.25,4.548,4.548,0,0,1,.977-.109A4.248,4.248,0,0,1-679.5,224.5c.088.267.181.422.387.422a.777.777,0,0,0,.238-.047,4.552,4.552,0,0,1,.974-.106,4.741,4.741,0,0,1,3.285,1.348,4.8,4.8,0,0,1,1.5,3.26.968.968,0,0,0,.062.25.993.993,0,0,1,.063.25,5.1,5.1,0,0,1-4.256,5.109,8.2,8.2,0,0,0-2.507-5.639,8.208,8.208,0,0,0-5.737-2.322,8.26,8.26,0,0,0-8.25,8.25,8.244,8.244,0,0,0,1.16,4.222l0,0Z" transform="translate(705 -214.771)" fill="#fff"/>
  </g>
</svg>
