<svg xmlns="http://www.w3.org/2000/svg" xmlns:xlink="http://www.w3.org/1999/xlink" width="32" height="32" viewBox="0 0 32 32">
  <defs>
    <clipPath id="clip-Artboard_27">
      <rect width="32" height="32"/>
    </clipPath>
  </defs>
  <g id="Artboard_27" data-name="Artboard – 27" clip-path="url(#clip-Artboard_27)">
    <path id="Union_12" data-name="Union 12" d="M-692,188.27a6.507,6.507,0,0,1,6.5-6.5,6.507,6.507,0,0,1,6.5,6.5,6.507,6.507,0,0,1-6.5,6.5A6.507,6.507,0,0,1-692,188.27Zm7.121-2.05v4.344a.84.84,0,0,0,.839.839.84.84,0,0,0,.839-.839V186.22a.84.84,0,0,0-.839-.839A.84.84,0,0,0-684.879,186.22Zm-3.148,0v4.344a.84.84,0,0,0,.839.839.84.84,0,0,0,.839-.839V186.22a.84.84,0,0,0-.839-.839A.84.84,0,0,0-688.028,186.22Zm-4.563,6.275a5.175,5.175,0,0,1-3.8-2.742,7.678,7.678,0,0,1-.625-1.5c0-.141-.041-.207-.13-.207a.614.614,0,0,0-.246.082,5.334,5.334,0,0,1-2.241.5,5.475,5.475,0,0,1-5.263-4.506,6.126,6.126,0,0,1,1.135-4.842,5.055,5.055,0,0,1,3.617-2.038,1.335,1.335,0,0,0,1.126-.875,7.754,7.754,0,0,1,5.629-5.128A9.646,9.646,0,0,1-691.3,171a7.856,7.856,0,0,1,6.295,3.243.645.645,0,0,0,.5.25,4.493,4.493,0,0,1,.977-.11A4.248,4.248,0,0,1-679.5,177.5c.088.267.181.422.387.422a.777.777,0,0,0,.238-.047,4.552,4.552,0,0,1,.974-.106,4.741,4.741,0,0,1,3.285,1.348,4.8,4.8,0,0,1,1.5,3.26.968.968,0,0,0,.062.25.993.993,0,0,1,.063.25,5.1,5.1,0,0,1-4.256,5.108,8.2,8.2,0,0,0-2.507-5.639,8.2,8.2,0,0,0-5.737-2.322,8.259,8.259,0,0,0-8.25,8.25,8.246,8.246,0,0,0,1.16,4.222l0,0Z" transform="translate(705 -167.771)" fill="#fff"/>
  </g>
</svg>
