<svg xmlns="http://www.w3.org/2000/svg" xmlns:xlink="http://www.w3.org/1999/xlink" width="32" height="32" viewBox="0 0 32 32">
  <defs>
    <clipPath id="clip-Artboard_11">
      <rect width="32" height="32"/>
    </clipPath>
  </defs>
  <g id="Artboard_11" data-name="Artboard – 11" clip-path="url(#clip-Artboard_11)">
    <path id="Union_2" data-name="Union 2" d="M-688,304.27a6.507,6.507,0,0,1,6.5-6.5,6.507,6.507,0,0,1,6.5,6.5,6.507,6.507,0,0,1-6.5,6.5A6.506,6.506,0,0,1-688,304.27Zm3.821-.363a.529.529,0,0,0-.166.384.531.531,0,0,0,.166.387l2.356,2.467a.525.525,0,0,0,.394.161h.007a.527.527,0,0,0,.393-.161l2.357-2.467a.537.537,0,0,0,.165-.387.539.539,0,0,0-.165-.384.569.569,0,0,0-.4-.159.567.567,0,0,0-.4.159l-1.4,1.482v-3.823a.556.556,0,0,0-.562-.546.549.549,0,0,0-.563.546v3.823l-1.4-1.482a.569.569,0,0,0-.4-.159A.567.567,0,0,0-684.178,303.908Zm-4.412,4.587a5.177,5.177,0,0,1-3.8-2.742,7.682,7.682,0,0,1-.625-1.5c0-.141-.041-.207-.129-.207a.621.621,0,0,0-.247.082,5.313,5.313,0,0,1-2.241.5,5.474,5.474,0,0,1-5.263-4.505,6.13,6.13,0,0,1,1.136-4.842,5.05,5.05,0,0,1,3.616-2.039,1.334,1.334,0,0,0,1.126-.875,7.754,7.754,0,0,1,5.629-5.128A9.648,9.648,0,0,1-687.3,287a7.853,7.853,0,0,1,6.294,3.243.645.645,0,0,0,.5.25,4.5,4.5,0,0,1,.977-.11A4.247,4.247,0,0,1-675.5,293.5c.089.267.181.422.387.422a.772.772,0,0,0,.239-.047,4.56,4.56,0,0,1,.975-.106,4.738,4.738,0,0,1,3.284,1.348,4.794,4.794,0,0,1,1.5,3.26.946.946,0,0,0,.063.25.966.966,0,0,1,.062.25,5.1,5.1,0,0,1-4.256,5.108,8.2,8.2,0,0,0-2.507-5.638,8.2,8.2,0,0,0-5.737-2.322,8.259,8.259,0,0,0-8.25,8.25,8.239,8.239,0,0,0,1.161,4.222v0Z" transform="translate(701 -283.771)" fill="#fff"/>
  </g>
</svg>
