<svg xmlns="http://www.w3.org/2000/svg" xmlns:xlink="http://www.w3.org/1999/xlink" width="32" height="32" viewBox="0 0 32 32">
  <defs>
    <clipPath id="clip-Artboard_32">
      <rect width="32" height="32"/>
    </clipPath>
  </defs>
  <g id="Artboard_32" data-name="Artboard – 32" clip-path="url(#clip-Artboard_32)">
    <g id="Group_76" data-name="Group 76">
      <g id="Group_57" data-name="Group 57">
        <path id="Subtraction_41" data-name="Subtraction 41" d="M-769.588,116.5h0a5.175,5.175,0,0,1-3.8-2.742,7.7,7.7,0,0,1-.625-1.5c0-.142-.041-.207-.129-.207a.615.615,0,0,0-.247.082,5.319,5.319,0,0,1-2.241.5,5.475,5.475,0,0,1-5.263-4.506,6.129,6.129,0,0,1,1.135-4.842,5.052,5.052,0,0,1,3.617-2.039,1.334,1.334,0,0,0,1.126-.875,7.755,7.755,0,0,1,5.629-5.128A9.657,9.657,0,0,1-768.3,95a7.854,7.854,0,0,1,6.294,3.243.647.647,0,0,0,.5.25,4.513,4.513,0,0,1,.977-.11A4.247,4.247,0,0,1-756.5,101.5c.089.267.181.422.387.422a.776.776,0,0,0,.238-.047,4.551,4.551,0,0,1,.975-.106,4.74,4.74,0,0,1,3.284,1.348,4.8,4.8,0,0,1,1.5,3.26.971.971,0,0,0,.063.25.973.973,0,0,1,.063.25,5.1,5.1,0,0,1-4.256,5.109,8.206,8.206,0,0,0-2.507-5.639,8.207,8.207,0,0,0-5.737-2.322,8.26,8.26,0,0,0-8.25,8.25,8.239,8.239,0,0,0,1.161,4.222Z" transform="translate(782 -91.771)" fill="#041e42"/>
      </g>
      <g id="Group_74" data-name="Group 74">
        <path id="Path_204" data-name="Path 204" d="M-524.5,12a6.46,6.46,0,0,1-2.53-.511A6.479,6.479,0,0,1-529.1,10.1a6.479,6.479,0,0,1-1.393-2.066A6.459,6.459,0,0,1-531,5.5a6.459,6.459,0,0,1,.511-2.53A6.479,6.479,0,0,1-529.1.9,6.479,6.479,0,0,1-527.03-.489,6.46,6.46,0,0,1-524.5-1a6.46,6.46,0,0,1,2.53.511A6.478,6.478,0,0,1-519.9.9a6.477,6.477,0,0,1,1.393,2.066A6.46,6.46,0,0,1-518,5.5a6.46,6.46,0,0,1-.511,2.53A6.477,6.477,0,0,1-519.9,10.1a6.478,6.478,0,0,1-2.066,1.393A6.46,6.46,0,0,1-524.5,12Zm-.1-4.018a.98.98,0,0,0-.967.967.98.98,0,0,0,.967.967.966.966,0,0,0,.691-.3.867.867,0,0,0,.252-.639.944.944,0,0,0-.262-.7A.937.937,0,0,0-524.6,7.982Zm-.007-6.815a1.021,1.021,0,0,0-.233.027,1.053,1.053,0,0,0-.746,1.056c.012.156.023.317.033.46s.021.308.033.46c.033.577.065,1.149.1,1.72v.015c.033.576.066,1.152.1,1.735a.708.708,0,0,0,.723.681.723.723,0,0,0,.723-.7c0-.237,0-.46.023-.7.021-.375.044-.754.066-1.12V4.782c.022-.363.044-.739.065-1.109.012-.242.028-.488.044-.725s.033-.483.044-.725a1.184,1.184,0,0,0-.089-.483A.963.963,0,0,0-524.6,1.167Z" transform="translate(544 15)" fill="#f59700"/>
        <g id="Group_73" data-name="Group 73" transform="translate(18.417 16.167)">
          <path id="Path_176" data-name="Path 176" d="M219.192,333.382a.967.967,0,1,0,0,1.934.967.967,0,0,0,0-1.934Z" transform="translate(-218.206 -326.567)" fill="#fff"/>
          <path id="Path_177" data-name="Path 177" d="M218.471,157.2a1.052,1.052,0,0,0-.746,1.056c.023.306.043.615.066.92.066,1.164.132,2.305.2,3.469a.709.709,0,0,0,.723.681.723.723,0,0,0,.723-.7c0-.24,0-.46.023-.7.043-.746.089-1.493.131-2.239.023-.483.066-.967.089-1.45a1.194,1.194,0,0,0-.089-.483A.969.969,0,0,0,218.471,157.2Z" transform="translate(-217.725 -157.176)" fill="#fff"/>
        </g>
      </g>
    </g>
  </g>
</svg>
