<svg xmlns="http://www.w3.org/2000/svg" xmlns:xlink="http://www.w3.org/1999/xlink" width="32" height="32" viewBox="0 0 32 32">
  <defs>
    <clipPath id="clip-Artboard_19">
      <rect width="32" height="32"/>
    </clipPath>
  </defs>
  <g id="Artboard_19" data-name="Artboard – 19" clip-path="url(#clip-Artboard_19)">
    <path id="Union_5" data-name="Union 5" d="M-688.03,285.26a6.479,6.479,0,0,1-2.066-1.392,6.478,6.478,0,0,1-1.392-2.066,6.45,6.45,0,0,1-.511-2.53,6.45,6.45,0,0,1,.511-2.53,6.457,6.457,0,0,1,1.392-2.066,6.5,6.5,0,0,1,2.066-1.393,6.469,6.469,0,0,1,2.53-.51,6.474,6.474,0,0,1,2.531.51,6.482,6.482,0,0,1,2.066,1.393,6.471,6.471,0,0,1,1.393,2.066,6.451,6.451,0,0,1,.511,2.53,6.451,6.451,0,0,1-.511,2.53,6.482,6.482,0,0,1-1.393,2.066,6.465,6.465,0,0,1-2.066,1.392,6.459,6.459,0,0,1-2.531.511A6.454,6.454,0,0,1-688.03,285.26Zm.85-2.663a.567.567,0,0,0,.566.567h2.229a.567.567,0,0,0,.566-.567.567.567,0,0,0-.566-.566h-.548v-3.892a.567.567,0,0,0-.567-.566h-1.114a.567.567,0,0,0-.566.566.567.567,0,0,0,.566.567h.548v3.325h-.548A.567.567,0,0,0-687.181,282.6Zm.972-6.7a.709.709,0,0,0,.708.708.709.709,0,0,0,.708-.708.709.709,0,0,0-.708-.708A.709.709,0,0,0-686.209,275.9Zm-6.382,7.6a5.175,5.175,0,0,1-3.8-2.742,7.655,7.655,0,0,1-.625-1.5c0-.141-.041-.207-.13-.207a.614.614,0,0,0-.246.082,5.32,5.32,0,0,1-2.241.5,5.475,5.475,0,0,1-5.263-4.506,6.126,6.126,0,0,1,1.135-4.842,5.055,5.055,0,0,1,3.617-2.038,1.334,1.334,0,0,0,1.126-.875,7.754,7.754,0,0,1,5.629-5.128A9.645,9.645,0,0,1-691.3,262a7.856,7.856,0,0,1,6.295,3.243.645.645,0,0,0,.5.25,4.493,4.493,0,0,1,.977-.11A4.248,4.248,0,0,1-679.5,268.5c.088.267.181.422.387.422a.777.777,0,0,0,.238-.047,4.551,4.551,0,0,1,.974-.106,4.741,4.741,0,0,1,3.285,1.348,4.8,4.8,0,0,1,1.5,3.26.968.968,0,0,0,.062.25.993.993,0,0,1,.063.25,5.1,5.1,0,0,1-4.256,5.108,8.2,8.2,0,0,0-2.507-5.638,8.2,8.2,0,0,0-5.737-2.322,8.259,8.259,0,0,0-8.25,8.25,8.244,8.244,0,0,0,1.16,4.222l0,0Z" transform="translate(705 -258.771)" fill="#fff"/>
  </g>
</svg>
