<svg xmlns="http://www.w3.org/2000/svg" xmlns:xlink="http://www.w3.org/1999/xlink" width="32" height="32" viewBox="0 0 32 32">
  <defs>
    <clipPath id="clip-Artboard_15">
      <rect width="32" height="32"/>
    </clipPath>
  </defs>
  <g id="Artboard_15" data-name="Artboard – 15" clip-path="url(#clip-Artboard_15)">
    <path id="Union_7" data-name="Union 7" d="M-692,324.271a6.507,6.507,0,0,1,6.5-6.5,6.507,6.507,0,0,1,6.5,6.5,6.507,6.507,0,0,1-6.5,6.5A6.507,6.507,0,0,1-692,324.271Zm6.522.924h0l2.324,2.325a.66.66,0,0,0,.463.192c.021,0,.043,0,.068,0a.667.667,0,0,0,.435-.162l.021-.021.01-.01a.662.662,0,0,0-.031-.935l-2.348-2.335,2.348-2.348a.664.664,0,0,0-.031-.868.667.667,0,0,0-.484-.21.657.657,0,0,0-.451.178l-2.318,2.318-2.364-2.351a.657.657,0,0,0-.43-.159.657.657,0,0,0-.43.159.653.653,0,0,0-.229.451.66.66,0,0,0,.157.482l2.358,2.358-2.358,2.358a.663.663,0,0,0,0,.932.662.662,0,0,0,.431.159h.07a.664.664,0,0,0,.431-.158l2.357-2.358Zm-7.113,3.3a5.175,5.175,0,0,1-3.8-2.742,7.655,7.655,0,0,1-.625-1.5c0-.141-.041-.207-.13-.207a.614.614,0,0,0-.246.082,5.32,5.32,0,0,1-2.241.5,5.475,5.475,0,0,1-5.263-4.506,6.126,6.126,0,0,1,1.135-4.842,5.055,5.055,0,0,1,3.617-2.038,1.334,1.334,0,0,0,1.126-.875,7.754,7.754,0,0,1,5.629-5.128A9.645,9.645,0,0,1-691.3,307a7.856,7.856,0,0,1,6.295,3.243.645.645,0,0,0,.5.25,4.5,4.5,0,0,1,.977-.11A4.248,4.248,0,0,1-679.5,313.5c.088.267.181.422.387.422a.777.777,0,0,0,.238-.047,4.551,4.551,0,0,1,.974-.106,4.741,4.741,0,0,1,3.285,1.348,4.8,4.8,0,0,1,1.5,3.26.968.968,0,0,0,.062.25.993.993,0,0,1,.063.25,5.1,5.1,0,0,1-4.256,5.108,8.2,8.2,0,0,0-2.507-5.638,8.2,8.2,0,0,0-5.737-2.322,8.259,8.259,0,0,0-8.25,8.25,8.244,8.244,0,0,0,1.16,4.222l0,0Z" transform="translate(705 -303.771)" fill="#fff"/>
  </g>
</svg>
