<svg xmlns="http://www.w3.org/2000/svg" xmlns:xlink="http://www.w3.org/1999/xlink" width="32" height="32" viewBox="0 0 32 32">
  <defs>
    <clipPath id="clip-Artboard_30">
      <rect width="32" height="32"/>
    </clipPath>
  </defs>
  <g id="Artboard_30" data-name="Artboard – 30" clip-path="url(#clip-Artboard_30)">
    <path id="Union_16" data-name="Union 16" d="M-692,141.27a6.507,6.507,0,0,1,6.5-6.5,6.507,6.507,0,0,1,6.5,6.5,6.507,6.507,0,0,1-6.5,6.5A6.507,6.507,0,0,1-692,141.27Zm6.514,1.353-1.771,1.3a.057.057,0,0,0-.022.045.051.051,0,0,0,.022.041l1.769,1.3a.059.059,0,0,0,.038.013.058.058,0,0,0,.061-.057v-.86a3.218,3.218,0,0,0,3.032-2.3,3.213,3.213,0,0,0,.108-1.268,3.144,3.144,0,0,0-.675-1.612.448.448,0,0,0-.352-.171.435.435,0,0,0-.259.085.44.44,0,0,0-.175.3.441.441,0,0,0,.094.335,2.27,2.27,0,0,1,.506,1.319,2.305,2.305,0,0,1-.18,1.014,2.314,2.314,0,0,1-2.1,1.421v-.859a.06.06,0,0,0-.061-.056A.061.061,0,0,0-685.486,142.623Zm-.1-5.63v.86a3.227,3.227,0,0,0-3.033,2.3,3.19,3.19,0,0,0-.107,1.268,3.162,3.162,0,0,0,.676,1.612.446.446,0,0,0,.351.171.435.435,0,0,0,.26-.086.436.436,0,0,0,.177-.3.436.436,0,0,0-.094-.334,2.3,2.3,0,0,1-.5-1.32,2.283,2.283,0,0,1,.179-1.013,2.32,2.32,0,0,1,2.1-1.421v.859a.059.059,0,0,0,.061.058.064.064,0,0,0,.038-.013l1.768-1.3a.049.049,0,0,0,.022-.041.056.056,0,0,0-.022-.046l-1.77-1.3a.064.064,0,0,0-.038-.013A.059.059,0,0,0-685.589,136.993Zm-7,8.5a5.175,5.175,0,0,1-3.8-2.742,7.678,7.678,0,0,1-.625-1.5c0-.141-.041-.207-.13-.207a.614.614,0,0,0-.246.082,5.319,5.319,0,0,1-2.241.5,5.473,5.473,0,0,1-5.263-4.505,6.126,6.126,0,0,1,1.135-4.842,5.052,5.052,0,0,1,3.617-2.038,1.335,1.335,0,0,0,1.126-.875,7.753,7.753,0,0,1,5.629-5.128A9.646,9.646,0,0,1-691.3,124a7.854,7.854,0,0,1,6.295,3.243.647.647,0,0,0,.5.25,4.494,4.494,0,0,1,.977-.11A4.248,4.248,0,0,1-679.5,130.5c.088.267.181.422.387.422a.777.777,0,0,0,.238-.047,4.552,4.552,0,0,1,.974-.106,4.744,4.744,0,0,1,3.285,1.347,4.8,4.8,0,0,1,1.5,3.261.986.986,0,0,0,.062.25.975.975,0,0,1,.063.25,5.1,5.1,0,0,1-4.256,5.108,8.2,8.2,0,0,0-2.507-5.638,8.2,8.2,0,0,0-5.737-2.322,8.259,8.259,0,0,0-8.25,8.25,8.246,8.246,0,0,0,1.16,4.222l0,0Z" transform="translate(705 -120.771)" fill="#fff"/>
  </g>
</svg>
