<svg xmlns="http://www.w3.org/2000/svg" xmlns:xlink="http://www.w3.org/1999/xlink" width="32" height="32" viewBox="0 0 32 32">
  <defs>
    <clipPath id="clip-Artboard_34">
      <rect width="32" height="32"/>
    </clipPath>
  </defs>
  <g id="Artboard_34" data-name="Artboard – 34" clip-path="url(#clip-Artboard_34)">
    <path id="Union_13" data-name="Union 13" d="M-692,102.271a6.507,6.507,0,0,1,6.5-6.5,6.507,6.507,0,0,1,6.5,6.5,6.507,6.507,0,0,1-6.5,6.5A6.507,6.507,0,0,1-692,102.271Zm5.436,3.449a.98.98,0,0,0,.967.967.966.966,0,0,0,.691-.3.867.867,0,0,0,.253-.64.946.946,0,0,0-.262-.7.937.937,0,0,0-.682-.29A.98.98,0,0,0-686.564,105.719Zm.726-7.755a1.055,1.055,0,0,0-.746,1.057c.011.145.022.291.031.437l0,.023c.01.154.021.307.032.46.05.895.1,1.776.152,2.664l.046.806a.707.707,0,0,0,.723.68.721.721,0,0,0,.723-.7c0-.237,0-.46.023-.7q.032-.56.066-1.12t.066-1.12c.012-.232.028-.464.043-.69.017-.248.034-.5.046-.76a1.164,1.164,0,0,0-.089-.483.962.962,0,0,0-.885-.572A1.03,1.03,0,0,0-685.838,97.964Zm-6.753,8.53a5.172,5.172,0,0,1-3.8-2.741,7.678,7.678,0,0,1-.625-1.5c0-.142-.041-.208-.13-.208a.6.6,0,0,0-.246.083,5.333,5.333,0,0,1-2.241.5,5.474,5.474,0,0,1-5.263-4.505,6.126,6.126,0,0,1,1.135-4.842,5.052,5.052,0,0,1,3.617-2.038,1.335,1.335,0,0,0,1.126-.875,7.753,7.753,0,0,1,5.629-5.128A9.65,9.65,0,0,1-691.3,85a7.855,7.855,0,0,1,6.295,3.244.65.65,0,0,0,.5.25,4.494,4.494,0,0,1,.977-.11A4.248,4.248,0,0,1-679.5,91.5c.088.266.181.421.387.421a.8.8,0,0,0,.238-.046,4.5,4.5,0,0,1,.974-.106,4.744,4.744,0,0,1,3.285,1.347,4.8,4.8,0,0,1,1.5,3.261.971.971,0,0,0,.062.249.989.989,0,0,1,.063.251,5.1,5.1,0,0,1-4.256,5.108,8.206,8.206,0,0,0-2.507-5.639,8.207,8.207,0,0,0-5.737-2.321,8.259,8.259,0,0,0-8.25,8.25,8.246,8.246,0,0,0,1.16,4.222l0,0Z" transform="translate(705 -81.771)" fill="#fff"/>
  </g>
</svg>
