<svg xmlns="http://www.w3.org/2000/svg" xmlns:xlink="http://www.w3.org/1999/xlink" width="32" height="32" viewBox="0 0 32 32">
  <defs>
    <clipPath id="clip-Artboard_3">
      <rect width="32" height="32"/>
    </clipPath>
  </defs>
  <g id="Artboard_3" data-name="Artboard – 3" clip-path="url(#clip-Artboard_3)">
    <path id="Union_1" data-name="Union 1" d="M-725,152.271a6.507,6.507,0,0,1,6.5-6.5,6.508,6.508,0,0,1,6.5,6.5,6.508,6.508,0,0,1-6.5,6.5A6.507,6.507,0,0,1-725,152.271Zm2.627-.6a.813.813,0,0,0,0,1.146l2.2,2.205a.8.8,0,0,0,.572.237.8.8,0,0,0,.573-.237l4.27-4.271a.8.8,0,0,0,.238-.572.8.8,0,0,0-.238-.573.8.8,0,0,0-.572-.237.808.808,0,0,0-.573.237l-3.7,3.7-1.632-1.632a.8.8,0,0,0-.572-.237A.808.808,0,0,0-722.373,151.67Zm-3.217,4.825a5.177,5.177,0,0,1-3.8-2.742,7.678,7.678,0,0,1-.625-1.5c0-.141-.041-.207-.129-.207a.613.613,0,0,0-.247.082,5.331,5.331,0,0,1-2.241.5,5.476,5.476,0,0,1-5.263-4.506,6.133,6.133,0,0,1,1.135-4.842,5.057,5.057,0,0,1,3.617-2.038,1.335,1.335,0,0,0,1.126-.875,7.756,7.756,0,0,1,5.629-5.128A9.649,9.649,0,0,1-724.3,135a7.856,7.856,0,0,1,6.294,3.243.645.645,0,0,0,.5.25,4.493,4.493,0,0,1,.977-.11A4.248,4.248,0,0,1-712.5,141.5c.089.267.181.422.387.422a.772.772,0,0,0,.238-.047,4.56,4.56,0,0,1,.975-.106,4.738,4.738,0,0,1,3.284,1.348,4.8,4.8,0,0,1,1.5,3.26.968.968,0,0,0,.062.25.955.955,0,0,1,.063.25,5.1,5.1,0,0,1-4.256,5.108,8.2,8.2,0,0,0-2.507-5.639,8.2,8.2,0,0,0-5.737-2.322,8.259,8.259,0,0,0-8.25,8.25,8.238,8.238,0,0,0,1.161,4.222v0Z" transform="translate(738 -131.771)" fill="#fff"/>
  </g>
</svg>
