<svg xmlns="http://www.w3.org/2000/svg" xmlns:xlink="http://www.w3.org/1999/xlink" width="512" height="512" viewBox="0 0 512 512">
  <defs>
    <clipPath id="clip-Artboard_47">
      <rect width="512" height="512"/>
    </clipPath>
  </defs>
  <g id="Artboard_47" data-name="Artboard – 47" clip-path="url(#clip-Artboard_47)">
    <path id="Path_17691" data-name="Path 17691" d="M424.8,116.767c-6.027,2.009-8.037,0-10.046-6.026-12.055-36.165-44.2-56.255-80.366-48.22a10.439,10.439,0,0,1-8.037-4.018c-36.163-44.2-80.363-60.275-134.61-48.22-44.2,10.046-74.339,40.183-90.412,82.374C97.309,102.7,91.281,104.712,83.245,106.72,33.016,110.738-3.147,162.976,6.9,217.222c12.055,56.255,68.311,88.4,120.548,64.293,4.018-2.009,6.026-2.009,6.026,2.009a122.909,122.909,0,0,0,10.046,24.11c18.081,32.145,48.22,48.22,82.374,44.2,26.119-2.009,44.2-14.064,60.273-34.156,4.018-4.018,6.026-4.018,10.046,0,14.064,14.064,32.145,20.09,52.238,20.09,34.156-2.009,58.264-18.081,72.328-50.229,2.009-8.037,6.026-8.037,12.055-8.037H446.9c40.183-2.009,68.311-37.081,70.319-81.282v-9.13c-2.009-46.209-46.209-82.374-92.42-72.328" transform="translate(-5.216 76.593)" fill="#223143"/>
  </g>
</svg>
