<svg xmlns="http://www.w3.org/2000/svg" xmlns:xlink="http://www.w3.org/1999/xlink" width="32" height="32" viewBox="0 0 32 32">
  <defs>
    <clipPath id="clip-Artboard_12">
      <rect width="32" height="32"/>
    </clipPath>
  </defs>
  <g id="Artboard_12" data-name="Artboard – 12" clip-path="url(#clip-Artboard_12)">
    <path id="Subtraction_41" data-name="Subtraction 41" d="M-769.588,116.5h0a5.175,5.175,0,0,1-3.8-2.742,7.7,7.7,0,0,1-.625-1.5c0-.142-.041-.207-.129-.207a.615.615,0,0,0-.247.082,5.319,5.319,0,0,1-2.241.5,5.475,5.475,0,0,1-5.263-4.506,6.129,6.129,0,0,1,1.135-4.842,5.052,5.052,0,0,1,3.617-2.039,1.334,1.334,0,0,0,1.126-.875,7.755,7.755,0,0,1,5.629-5.128A9.657,9.657,0,0,1-768.3,95a7.854,7.854,0,0,1,6.294,3.243.647.647,0,0,0,.5.25,4.513,4.513,0,0,1,.977-.11A4.247,4.247,0,0,1-756.5,101.5c.089.267.181.422.387.422a.776.776,0,0,0,.238-.047,4.551,4.551,0,0,1,.975-.106,4.74,4.74,0,0,1,3.284,1.348,4.8,4.8,0,0,1,1.5,3.26.971.971,0,0,0,.063.25.973.973,0,0,1,.063.25,5.1,5.1,0,0,1-4.256,5.109,8.206,8.206,0,0,0-2.507-5.639,8.207,8.207,0,0,0-5.737-2.322,8.26,8.26,0,0,0-8.25,8.25,8.239,8.239,0,0,0,1.161,4.222Z" transform="translate(782 -91.771)" fill="#041e42"/>
    <g id="Group_62" data-name="Group 62">
      <path id="Path_178" data-name="Path 178" d="M6.5,13A6.5,6.5,0,0,1,1.9,1.9,6.5,6.5,0,1,1,11.1,11.1,6.457,6.457,0,0,1,6.5,13Zm.022-5.576h0L8.847,9.749a.658.658,0,0,0,.463.192.625.625,0,0,0,.069,0,.66.66,0,0,0,.434-.162l.031-.031a.661.661,0,0,0-.031-.935L7.465,6.482,9.813,4.134a.661.661,0,0,0-.966-.9L6.529,5.552,4.164,3.2a.661.661,0,0,0-.933.933L5.59,6.492,3.232,8.85a.663.663,0,0,0,0,.932.661.661,0,0,0,.43.16h.072a.66.66,0,0,0,.43-.159L6.522,7.425Z" transform="translate(13 14)" fill="#f40000"/>
      <g id="close" transform="translate(16.039 17.042)">
        <g id="close_1_">
          <path id="Path_107" data-name="Path 107" d="M.662,9.356A.661.661,0,0,1,.193,9.2a.661.661,0,0,1,0-.933L5.808,2.649a.661.661,0,0,1,.966.9L1.125,9.2a.661.661,0,0,1-.463.159Z" transform="translate(-0.001 -2.457)" fill="#fff"/>
          <path id="Path_108" data-name="Path 108" d="M7.766,8.743A.661.661,0,0,1,7.3,8.551L1.687,2.936A.661.661,0,0,1,2.62,2L8.268,7.618a.661.661,0,0,1,.031.935l-.031.031a.661.661,0,0,1-.5.159Z" transform="translate(-1.495 -1.844)" fill="#fff"/>
        </g>
      </g>
    </g>
  </g>
</svg>
