<svg xmlns="http://www.w3.org/2000/svg" xmlns:xlink="http://www.w3.org/1999/xlink" width="32" height="32" viewBox="0 0 32 32">
  <defs>
    <clipPath id="clip-Artboard_8">
      <rect width="32" height="32"/>
    </clipPath>
  </defs>
  <g id="Artboard_8" data-name="Artboard – 8" clip-path="url(#clip-Artboard_8)">
    <path id="Subtraction_41" data-name="Subtraction 41" d="M-769.588,116.5h0a5.175,5.175,0,0,1-3.8-2.742,7.7,7.7,0,0,1-.625-1.5c0-.142-.041-.207-.129-.207a.615.615,0,0,0-.247.082,5.319,5.319,0,0,1-2.241.5,5.475,5.475,0,0,1-5.263-4.506,6.129,6.129,0,0,1,1.135-4.842,5.052,5.052,0,0,1,3.617-2.039,1.334,1.334,0,0,0,1.126-.875,7.755,7.755,0,0,1,5.629-5.128A9.657,9.657,0,0,1-768.3,95a7.854,7.854,0,0,1,6.294,3.243.647.647,0,0,0,.5.25,4.513,4.513,0,0,1,.977-.11A4.247,4.247,0,0,1-756.5,101.5c.089.267.181.422.387.422a.776.776,0,0,0,.238-.047,4.551,4.551,0,0,1,.975-.106,4.74,4.74,0,0,1,3.284,1.348,4.8,4.8,0,0,1,1.5,3.26.971.971,0,0,0,.063.25.973.973,0,0,1,.063.25,5.1,5.1,0,0,1-4.256,5.109,8.206,8.206,0,0,0-2.507-5.639,8.207,8.207,0,0,0-5.737-2.322,8.26,8.26,0,0,0-8.25,8.25,8.239,8.239,0,0,0,1.161,4.222Z" transform="translate(782 -91.771)" fill="#041e42"/>
    <g id="Group_60" data-name="Group 60">
      <path id="Path_179" data-name="Path 179" d="M6.5,13A6.5,6.5,0,0,1,1.9,1.9,6.5,6.5,0,1,1,11.1,11.1,6.457,6.457,0,0,1,6.5,13ZM4.219,5.977a.568.568,0,0,0-.4.16.534.534,0,0,0,0,.772L6.178,9.376a.528.528,0,0,0,.394.161h.007a.528.528,0,0,0,.394-.161L9.329,6.909a.534.534,0,0,0,0-.772.575.575,0,0,0-.795,0L7.138,7.62V3.8a.555.555,0,0,0-.563-.547.549.549,0,0,0-.563.547V7.62l-1.4-1.483A.568.568,0,0,0,4.219,5.977Z" transform="translate(13 14)" fill="#00b100"/>
      <path id="Icon_ionic-md-arrow-round-down" data-name="Icon ionic-md-arrow-round-down" d="M6.495,9.291l2.357,2.467a.531.531,0,0,0,.394.161h.007a.531.531,0,0,0,.394-.161L12,9.291a.534.534,0,0,0,0-.772.575.575,0,0,0-.795,0L9.812,10V6.179a.563.563,0,0,0-1.126,0V10L7.29,8.519a.575.575,0,0,0-.795,0A.534.534,0,0,0,6.495,9.291Z" transform="translate(10.326 11.618)" fill="#fff"/>
    </g>
  </g>
</svg>
