<svg xmlns="http://www.w3.org/2000/svg" width="128" height="128" viewBox="0 0 128 128">
  <g id="Group_85" data-name="Group 85" transform="translate(921.382 -482)">
    <path id="Path_130" data-name="Path 130" d="M108,0H20A20,20,0,0,0,0,20v88a20,20,0,0,0,20,20h88a20,20,0,0,0,20-20V20A20,20,0,0,0,108,0Z" transform="translate(-921.382 482)" fill="#223143"/>
    <g id="Group_25" data-name="Group 25" transform="translate(-700.15 -319.85)">
      <g id="Group_9761" data-name="Group 9761" transform="translate(-199.232 830.85)">
        <path id="Path_17668" data-name="Path 17668" d="M65.847,14.1H20.9C6.849,12.926,1,20.418.059,30.251a17.609,17.609,0,0,0,0,3.512v19.2L10.126,42.191a13.783,13.783,0,0,1,2.341-7.96,11.391,11.391,0,0,1,8.663-5.15h.234c2.107-5.853,6.321-9.833,11.94-11a14.4,14.4,0,0,1,4.448-.468c4.917,0,9.365,2.107,13.111,6.555h1.4a9.866,9.866,0,0,1,9.365,6.321h1.4A11.037,11.037,0,0,1,73.1,37.04L84.576,25.1h0L65.847,5.2Z" transform="translate(0.045 -5.2)" fill="#ee2b3a"/>
      </g>
      <g id="Group_9764" data-name="Group 9764" transform="translate(-199.129 853.56)">
        <g id="Group_9763" data-name="Group 9763" transform="translate(0)">
          <path id="Path_17671" data-name="Path 17671" d="M73.978,26.138a5.154,5.154,0,0,1,.234,1.873v.468l.234.7v.234c-.234,6.321-4.682,11.238-10.536,11.706H62.036a10.331,10.331,0,0,1-10.067,6.789h-.234A9.166,9.166,0,0,1,45.649,45.8a12.128,12.128,0,0,1-7.726,3.746h-.936a11.763,11.763,0,0,1-10.536-6.321l-.7-1.4a15.817,15.817,0,0,1-3.278.468c-5.619,0-10.536-4.214-11.94-9.833L0,42.995H0l18.5,18.964V52.828H67.657c14.515-.7,16.622-12.174,16.857-17.559h0V14.9Z" transform="translate(0.005 -14.9)" fill="#ee2b3a"/>
        </g>
      </g>
      <path id="Path_17674" data-name="Path 17674" d="M54.11,24.264c-.7.234-.936,0-1.171-.7-1.4-4.214-5.15-6.555-9.365-5.619a1.216,1.216,0,0,1-.936-.468c-4.214-5.15-9.365-7.024-15.686-5.619-5.15,1.171-8.663,4.683-10.536,9.6a2.5,2.5,0,0,1-2.107,1.638c-5.853.47-10.067,6.557-8.9,12.878,1.4,6.555,7.96,10.3,14.047,7.491.468-.234.7-.234.7.234A14.322,14.322,0,0,0,21.335,46.5a9.459,9.459,0,0,0,9.6,5.15,9.465,9.465,0,0,0,7.024-3.98c.468-.468.7-.468,1.171,0a8.291,8.291,0,0,0,6.086,2.341,9.109,9.109,0,0,0,8.428-5.853c.234-.936.7-.936,1.4-.936h1.639c4.682-.234,8.194-4.448,8.428-9.6,0-.234-.234-.7-.234-.936a9.04,9.04,0,0,0-10.769-8.428" transform="translate(-192.133 833.978)" fill="#fff"/>
    </g>
  </g>
</svg>
