<svg id="filesfm_logo_full" xmlns="http://www.w3.org/2000/svg" xmlns:xlink="http://www.w3.org/1999/xlink" width="187" height="33.375" viewBox="0 0 187 33.375">
  <defs>
    <clipPath id="clip-path">
      <path id="Path_17688" data-name="Path 17688" d="M31.182,4.416H9.879C3.222,3.861.449,7.412,0,12.072a8.343,8.343,0,0,0,0,1.664v9.1l4.771-5.1a6.532,6.532,0,0,1,1.109-3.772A5.4,5.4,0,0,1,9.99,11.517H10.1A7.665,7.665,0,0,1,15.76,6.3a6.829,6.829,0,0,1,2.108-.222,7.923,7.923,0,0,1,6.213,3.107h.666a4.676,4.676,0,0,1,4.438,3h.666a5.23,5.23,0,0,1,4.771,3.107l5.437-5.658h0L31.182.2Z" transform="translate(0.044 -0.2)"/>
    </clipPath>
    <clipPath id="clip-path-2">
      <path id="Path_17690" data-name="Path 17690" d="M35.06,15.226a2.443,2.443,0,0,1,.111.888v.222l.111.333v.111a5.558,5.558,0,0,1-4.993,5.547H29.4a4.9,4.9,0,0,1-4.771,3.218H24.52a4.345,4.345,0,0,1-2.885-1,5.748,5.748,0,0,1-3.661,1.775H17.53a5.575,5.575,0,0,1-4.993-3l-.333-.666a7.493,7.493,0,0,1-1.553.222,6.009,6.009,0,0,1-5.658-4.66L0,23.214H0L8.765,32.2V27.874h23.3c6.879-.333,7.877-5.769,7.988-8.321h0V9.9Z" transform="translate(0 -9.9)"/>
    </clipPath>
  </defs>
  <g id="Group_9786" data-name="Group 9786" transform="translate(0 0.312)">
    <g id="Group_9783" data-name="Group 9783" transform="translate(0)">
      <g id="Group_9782" data-name="Group 9782" clip-path="url(#clip-path)">
        <path id="Path_17687" data-name="Path 17687" d="M.375-2.7-1.4,22.929l41.384,3.218L41.76.407Z" transform="translate(-0.104 -0.518)" fill="#ee2b3a"/>
      </g>
    </g>
    <g id="Group_9785" data-name="Group 9785" transform="translate(0.049 10.762)">
      <g id="Group_9784" data-name="Group 9784" clip-path="url(#clip-path-2)">
        <path id="Path_17689" data-name="Path 17689" d="M.375,7.2-1.4,32.5,39.984,35.6l1.775-25.3Z" transform="translate(-0.153 -10.196)" fill="#ee2b3a"/>
      </g>
    </g>
    <path id="Path_17691" data-name="Path 17691" d="M28.387,12.5c-.333.111-.444,0-.555-.333a3.734,3.734,0,0,0-4.438-2.663.576.576,0,0,1-.444-.222,6.983,6.983,0,0,0-7.434-2.663,6.89,6.89,0,0,0-4.993,4.549,1.184,1.184,0,0,1-1,.777c-2.774.222-4.771,3.107-4.216,6.1a4.755,4.755,0,0,0,6.657,3.55c.222-.111.333-.111.333.111a6.787,6.787,0,0,0,.555,1.331A4.483,4.483,0,0,0,17.4,25.483,4.485,4.485,0,0,0,20.731,23.6c.222-.222.333-.222.555,0a3.929,3.929,0,0,0,2.885,1.109,4.316,4.316,0,0,0,3.994-2.774c.111-.444.333-.444.666-.444h.777A4.493,4.493,0,0,0,33.6,16.939c0-.111-.111-.333-.111-.444a4.284,4.284,0,0,0-5.1-3.994" transform="translate(0.621 0.48)" fill="#fff"/>
  </g>
  <g id="Group_9787" data-name="Group 9787" transform="translate(47.533 0)">
    <path id="Path_17692" data-name="Path 17692" d="M137.6,17.982V8.107c0-.444.111-.555.555-.555h5.658c.444,0,.555.111.444.555V9.439c0,.111-.111.222.111.333.111.111.222-.111.333-.111a17.856,17.856,0,0,1,3.107-1.886,7.6,7.6,0,0,1,7.656.666,4.749,4.749,0,0,1,1.553,1.775c.222.444.333.333.666.111a13.56,13.56,0,0,1,4.549-2.774,7.288,7.288,0,0,1,7.323,1,5.883,5.883,0,0,1,2.108,3.661,8.7,8.7,0,0,1,.222,2.441V27.967c0,.444-.111.555-.555.555h-5.548c-.444,0-.555-.111-.555-.555V16.1A10.934,10.934,0,0,0,165,14.21c-.333-1.22-1.22-1.775-2.663-1.886a6.882,6.882,0,0,0-3.883,1.109c-.333.111-.222.444-.222.666V27.746c0,.777,0,.666-.666.666h-5.548c-.444,0-.555-.111-.555-.555V16.1a10.934,10.934,0,0,0-.222-1.886c-.333-1.22-1.22-1.775-2.663-1.886a6.882,6.882,0,0,0-3.883,1.109c-.333.222-.333.444-.333.777V27.08c0,.444.222,1-.111,1.331s-.888.111-1.331.111h-4.771c-.444,0-.555-.111-.555-.555Z" transform="translate(-32.417 0.859)" fill="#fff" fill-rule="evenodd"/>
    <path id="Path_17693" data-name="Path 17693" d="M97.725,24.538V22.319c0-.222-.111-.444.111-.555a.523.523,0,0,1,.666.111,18.967,18.967,0,0,0,2.552,1.442,13.892,13.892,0,0,0,7.656,1,3.323,3.323,0,0,0,1.11-.444,1.229,1.229,0,0,0-.222-2.219,12.277,12.277,0,0,0-2.885-.777,26.322,26.322,0,0,1-5.1-1.22,5.961,5.961,0,0,1-3.661-7.212,6.532,6.532,0,0,1,3.107-3.772A13.474,13.474,0,0,1,106.6,7.008a20.521,20.521,0,0,1,8.987,1.109.775.775,0,0,1,.666.888V13.11c0,.222.111.444-.111.555s-.444,0-.777-.111a11.179,11.179,0,0,0-2.552-1.332,11.331,11.331,0,0,0-6.324-.666c-.333.111-.777.222-1.109.333A1.206,1.206,0,0,0,104.6,13a1.364,1.364,0,0,0,.777,1.22,12.277,12.277,0,0,0,2.885.777,34.7,34.7,0,0,1,4.882,1.11,5.492,5.492,0,0,1,3.55,3.107,6.174,6.174,0,0,1-2.108,7.545,11.863,11.863,0,0,1-6.1,2.108,32.66,32.66,0,0,1-4.66,0,23.566,23.566,0,0,1-5.991-1.442.513.513,0,0,1-.333-.555A7.937,7.937,0,0,0,97.725,24.538Z" transform="translate(-36.81 0.849)" fill="#fff" fill-rule="evenodd"/>
    <path id="Path_17694" data-name="Path 17694" d="M125.585,20.979V13.434c0-.444-.111-.666-.555-.666h-1.886c-.333,0-.444-.111-.444-.333V8.664c0-.333.111-.444.444-.444h2c.333,0,.444-.111.444-.444a13.282,13.282,0,0,1,.555-3.661A6.246,6.246,0,0,1,130.356.342,15.621,15.621,0,0,1,135.9.009c.777.111,1.553.111,2.33.222.333,0,.333.111.333.444V4.78c0,.555-.333.333-.555.333-.555-.111-1.109-.333-1.664-.444a6.048,6.048,0,0,0-2.441.111,2.134,2.134,0,0,0-1.775,2c-.222,1.442-.222,1.442,1.221,1.442h3.328c.333,0,.555.111.555.555v3.55c0,.333-.111.555-.444.444h-3.883c-.444,0-.555.111-.555.555v15.2c0,.444-.111.666-.666.666h-5.658c-.444,0-.444-.111-.444-.444Z" transform="translate(-34.048 0.081)" fill="#fff" fill-rule="evenodd"/>
    <path id="Path_17695" data-name="Path 17695" d="M45.663,20.958V13.413c0-.555-.111-.666-.666-.666H43.222c-.333,0-.444-.111-.444-.333V8.643a.294.294,0,0,1,.333-.333h2c.333,0,.444-.111.444-.444a12.5,12.5,0,0,1,.555-3.55A6,6,0,0,1,50.655.432,13.678,13.678,0,0,1,55.87.21c.777.111,1.553.111,2.33.222.333,0,.444.222.444.555V4.759c0,.555-.111.666-.666.444-.555-.111-1.109-.333-1.775-.444a6.6,6.6,0,0,0-2.552.111A2.025,2.025,0,0,0,52.1,6.424c-.111.444-.111.888-.222,1.331-.111.333.111.444.444.444h4.216c.333,0,.555.111.555.555V12.3c0,.333-.111.555-.444.555H52.652c-.444,0-.555.111-.555.555v15.2c0,.444-.111.666-.666.666H45.773c-.444,0-.444-.111-.444-.444A64.136,64.136,0,0,0,45.663,20.958Z" transform="translate(-42.775 0.102)" fill="#fff" fill-rule="evenodd"/>
    <path id="Path_17696" data-name="Path 17696" d="M75.157,14.734V28.6c0,.555-.111.666-.666.666H69.055c-.444,0-.555-.111-.555-.555V.755c0-.444.111-.555.555-.555H74.6c.444,0,.555.111.555.666Z" transform="translate(-39.983 0.112)" fill="#fff" fill-rule="evenodd"/>
    <path id="Path_17697" data-name="Path 17697" d="M59.8,17.929V8.055c0-.444.111-.555.555-.555h5.658c.333,0,.555.111.555.444V27.915c0,.333-.111.444-.444.444H60.355c-.444,0-.444-.111-.444-.555C59.8,24.475,59.8,21.147,59.8,17.929Z" transform="translate(-40.936 0.912)" fill="#fff" fill-rule="evenodd"/>
    <path id="Path_17698" data-name="Path 17698" d="M117.1,23.361V20.255c0-.333.111-.555.444-.555h5.991c.333,0,.555.111.555.444v6.435c0,.444-.111.444-.555.444h-5.88c-.444,0-.555-.111-.555-.555Z" transform="translate(-34.661 2.248)" fill="#fff" fill-rule="evenodd"/>
    <path id="Path_17699" data-name="Path 17699" d="M63.15.2h3c.333,0,.444.111.444.444V4.86c0,.333-.111.444-.444.444h-6.1c-.333,0-.444-.111-.444-.444V.644c0-.333.111-.444.444-.444Z" transform="translate(-40.957 0.112)" fill="#fff" fill-rule="evenodd"/>
    <path id="Path_17700" data-name="Path 17700" d="M98.252,13.787a7.936,7.936,0,0,0-6.1-6.435,15,15,0,0,0-9.1.443,9.646,9.646,0,0,0-6.1,6.325,13.067,13.067,0,0,0-.333,6.546A8.8,8.8,0,0,0,80.944,27.1a16.336,16.336,0,0,0,7.212,2,22.108,22.108,0,0,0,9.653-1.553c.333-.111.444-.222.444-.555V22.552c0-.555-.333-.666-.777-.555-.111,0-.222.111-.333.222A11.772,11.772,0,0,1,87.379,24.1,4.951,4.951,0,0,1,83.385,20c-.111-.666-.111-.666.555-.666h14.2c.222,0,.444.111.444-.333A26.893,26.893,0,0,0,98.252,13.787ZM91.373,15.34H83.607c-.333,0-.333-.111-.333-.444.222-2.441,1.886-3.55,4.105-3.772a3.826,3.826,0,0,1,3.218.888,4.287,4.287,0,0,1,1.22,3C91.817,15.34,91.6,15.34,91.373,15.34Z" transform="translate(-39.113 0.838)" fill="#fff"/>
  </g>
</svg>
